Coordinates
version=1
nRows=14
nColumns=36
inDegrees=yes

Units are S.I. units (second, meters, Newtons, ...)
If the header above contains a line with 'inDegrees', this indicates whether rotational values are in degrees (yes) or radians (no).

endheader
time	pelvis_tilt	pelvis_list	pelvis_rotation	pelvis_tx	pelvis_ty	pelvis_tz	hip_flexion_r	hip_adduction_r	hip_rotation_r	knee_angle_r	knee_angle_r_beta	ankle_angle_r	subtalar_angle_r	mtp_angle_r	hip_flexion_l	hip_adduction_l	hip_rotation_l	knee_angle_l	knee_angle_l_beta	ankle_angle_l	subtalar_angle_l	mtp_angle_l	lumbar_extension	lumbar_bending	lumbar_rotation	arm_flex_r	arm_add_r	arm_rot_r	elbow_flex_r	pro_sup_r	arm_flex_l	arm_add_l	arm_rot_l	elbow_flex_l	pro_sup_l
     15.00000000	     -2.58364621	     -6.20658648	     -1.81320137	      0.82669452	      0.94070237	      0.84277746	     23.96963456	      7.81446542	      8.58542780	     28.40571294	      0.49577322	     11.18671413	     -4.91260874	     -7.49999987	     -5.22555829	     -9.38918407	     -0.77825894	     39.34711071	      0.68673663	      3.54946970	    -11.53001457	     -7.49999987	    -20.64164281	     10.22311481	      0.90578564	      9.13397976	    -15.86268109	      4.41003567	     25.15937865	     78.65762590	     12.95148160	    -10.48301137	      3.59494062	     34.65176429	     76.01137200
     15.01666670	     -2.29233224	     -5.88704099	     -2.10288122	      0.82444099	      0.94673056	      0.84481718	     21.73613133	      7.72067321	      8.90339534	     27.33637639	      0.47710977	     12.46339816	     -4.01805579	     -7.49999987	     -3.12981307	     -9.21476902	     -0.72088972	     43.74372521	      0.76347203	      1.27592196	    -12.35671973	     -7.49999987	    -20.72656294	      9.88922047	      1.57334615	      8.96291130	    -16.06166688	      4.13039546	     25.21943548	     79.25154972	     11.99897461	     -9.90936964	      3.16919861	     33.82258310	     76.54598769
     15.03333330	     -1.82158818	     -5.43019134	     -2.46346111	      0.82093730	      0.95274689	      0.84605368	     19.29886417	      7.51450718	      9.60130848	     25.99408723	      0.45368241	     12.85524448	     -3.54256138	     -7.49999987	     -0.94237778	     -8.77274266	     -0.63506452	     47.58595061	      0.83053152	      0.14801650	    -12.90234950	     -7.49999987	    -21.07504053	      9.41527505	      2.32727179	      8.98813878	    -16.24884372	      4.02702412	     25.26692696	     79.31143606	     11.09393495	     -9.55292578	      3.13106997	     33.42802437	     76.60143398
     15.05000000	     -1.40357736	     -4.54965054	     -2.65673026	      0.81843571	      0.95764405	      0.84660788	     16.93710524	      6.63251654	      9.94619893	     24.57995815	      0.42900120	     13.16321237	     -2.26511185	     -7.49999987	      1.52842758	     -7.69984588	     -0.27454928	     50.65391117	      0.88407753	     -0.45359354	    -13.96824045	     -7.49999987	    -21.18938342	      8.53655030	      3.13763631	      8.89255491	    -16.30142062	      3.45698702	     25.06729802	     78.98827329	     10.72036959	     -8.91790843	      2.97341780	     31.84019404	     76.45155638
     15.06666670	     -0.77318534	     -3.58963553	     -2.78701027	      0.81667462	      0.95988262	      0.84864202	     14.35174903	      5.62592470	     10.41808433	     23.15024726	      0.40404804	     13.07316415	     -1.55127934	     -7.49999987	      3.79580022	     -6.64015665	     -0.20313302	     53.08936014	      0.92658413	     -0.06266350	    -14.39312586	     -7.49999987	    -21.65713088	      7.50053269	      4.51056461	      8.06451210	    -16.23505396	      0.52115268	     26.19959656	     82.29994532	     10.62354282	     -8.41145743	      3.46094304	     30.71105023	     79.31862019
     15.08333330	     -0.32319918	     -2.48805812	     -2.80369993	      0.81382123	      0.95860164	      0.85266121	     12.06783480	      4.41862357	     10.68939267	     21.79862300	      0.38045774	     13.01861861	     -0.92672789	     -7.49999987	      6.17307344	     -5.57360837	     -0.25466347	     54.96875885	      0.95938583	      0.61323420	    -14.53961391	     -7.49999987	    -21.85784134	      6.27042973	      4.94811176	      8.11987355	    -16.08167727	      0.54145856	     26.45383797	     82.20365872	      9.92073338	     -8.25839717	      3.41759423	     30.50367601	     79.16944620
     15.10000000	      0.16320794	     -1.43846040	     -2.64661610	      0.80843154	      0.95766456	      0.85704543	      9.88554752	      3.24216843	     10.68276648	     20.48284440	      0.35749308	     13.16333130	     -0.22909933	     -7.49999987	      8.39553735	     -4.65795091	     -0.20536100	     56.30846433	      0.98276810	      1.57459663	    -14.38544142	     -7.49999987	    -22.10607663	      5.02774886	      5.36280504	      8.31175509	    -15.78886637	      0.55723752	     26.72017001	     82.21998309	      9.56261729	     -8.19877040	      3.35154851	     30.07776792	     79.11319697
     15.11666670	      0.69978963	     -0.54154282	     -2.38942612	      0.80138876	      0.95995197	      0.85994069	      7.79711872	      2.20592981	     10.28994740	     19.21751031	      0.33540883	     13.69768307	      1.02906403	     -7.49999987	     10.42430841	     -3.98168432	     -0.14883523	     56.92200631	      0.99347643	      3.11868850	    -13.73639190	     -7.49999987	    -22.55426566	      3.86307439	      5.98091721	      8.39851044	    -15.55399756	      0.17027556	     27.57998506	     82.41005222	      9.80308011	     -8.06907837	      3.39284949	     28.81478457	     79.07007106
     15.13333330	      1.04249345	      0.31026641	     -2.18432793	      0.79600054	      0.96262402	      0.86138321	      6.07589267	      1.28156955	      9.91023953	     18.13329181	      0.31648565	     14.19330405	      1.97848640	     -7.49999987	     12.49292324	     -3.37078288	     -0.15686683	     56.76934282	      0.99081195	      4.54882393	    -13.28667365	     -7.49999987	    -22.87629947	      2.71129997	      6.36197844	      8.93393011	    -15.24281477	      0.15526596	     27.96224800	     81.77170697	      9.76787450	     -8.22706785	      3.38121559	     27.97866742	     78.40779584
     15.15000000	      1.43979953	      1.02931816	     -2.09461673	      0.79343226	      0.96458462	      0.86230159	      4.37572329	      0.54558689	      9.67779298	     17.21235292	      0.30041223	     14.45378920	      2.17690987	     -7.49999987	     14.25451062	     -2.91269175	     -0.29991886	     55.89875689	      0.97561736	      5.81877854	    -13.02173317	     -7.49999987	    -23.31214510	      1.67634600	      6.82010263	      9.54438660	    -15.04394732	      0.33596151	     28.31329995	     82.05748413	      9.68198470	     -8.42016283	      3.38095808	     27.21457760	     78.55440195
     15.16666670	      1.68506596	      1.65080308	     -2.01894770	      0.79185050	      0.96472514	      0.86306022	      2.91296367	     -0.11248617	      9.26272513	     16.49715620	      0.28792969	     14.68580858	      2.36411160	     -7.49999987	     15.98855061	     -2.57280596	     -0.48992536	     54.52981021	      0.95172473	      6.80238634	    -12.86231681	     -7.49999987	    -23.52810462	      0.75487684	      7.29561356	     10.03896044	    -14.88035674	      0.50095777	     28.50346231	     82.22056877	      9.50037813	     -8.58017830	      3.30007631	     26.63401137	     78.60979008
     15.18333330	      2.16853730	      2.13649624	     -1.96259026	      0.78791989	      0.96526778	      0.86344399	      1.31989574	     -0.67765810	      8.73263392	     15.99380485	      0.27914455	     15.13318239	      2.98122033	     -7.49999987	     17.36936002	     -2.48947874	     -0.83871564	     52.79402601	      0.92142958	      7.65450388	    -12.12790612	     -7.49999987	    -24.20209360	      0.03455557	      7.68341599	     10.66382128	    -14.87717901	      0.92773387	     29.00262931	     82.40152669	      9.55387580	     -8.67322269	      3.15451681	     25.87961923	     78.60067924
     15.20000000	      2.35156084	      2.55065515	     -1.73230829	      0.78191354	      0.96487510	      0.86321728	      0.13765874	     -1.16069221	      8.28275627	     15.63462964	      0.27287576	     15.47629434	      3.27076430	     -7.49999987	     19.01802253	     -2.51691433	     -1.09457162	     50.64152426	      0.88386134	      7.76587623	    -11.73744089	     -7.49999987	    -24.64670701	     -0.58547163	      7.89951172	     11.17294458	    -14.94946135	      1.68147963	     29.71489497	     80.63011362	      9.57298251	     -8.78871136	      3.11519607	     25.58542887	     76.96285043
     15.21666670	      2.35947138	      2.87325471	     -1.51103660	      0.77421590	      0.96283882	      0.86212161	     -0.68781388	     -1.53075141	      8.10181474	     15.58273531	      0.27197004	     16.03324399	      3.53427574	     -7.49999987	     20.72347794	     -2.70168760	     -1.47450910	     48.05625472	      0.83873987	      7.49739712	    -11.38362176	     -7.49999987	    -25.01646310	     -1.03209882	      8.04981255	     11.87381612	    -15.16217174	      2.58575478	     30.15298134	     79.37186908	      9.62621815	     -8.96186341	      3.40788600	     25.24871900	     75.88133813
